<mxfile host="65bd71144e">
    <diagram name="Page-1" id="kvKHOzHff_WfqcDuQBIu">
        <mxGraphModel dx="1062" dy="589" grid="1" gridSize="10" guides="1" tooltips="1" connect="1" arrows="1" fold="1" page="1" pageScale="1" pageWidth="850" pageHeight="1100" math="0" shadow="0">
            <root>
                <mxCell id="0"/>
                <mxCell id="1" parent="0"/>
                <mxCell id="9VQCFUlWGqOYBKX5Dbjd-1" value="Books" style="shape=table;startSize=30;container=1;collapsible=1;childLayout=tableLayout;fixedRows=1;rowLines=0;fontStyle=1;align=center;resizeLast=1;html=1;" parent="1" vertex="1">
                    <mxGeometry x="10" y="70" width="230" height="180" as="geometry"/>
                </mxCell>
                <mxCell id="9VQCFUlWGqOYBKX5Dbjd-2" value="" style="shape=tableRow;horizontal=0;startSize=0;swimlaneHead=0;swimlaneBody=0;fillColor=none;collapsible=0;dropTarget=0;points=[[0,0.5],[1,0.5]];portConstraint=eastwest;top=0;left=0;right=0;bottom=1;" parent="9VQCFUlWGqOYBKX5Dbjd-1" vertex="1">
                    <mxGeometry y="30" width="230" height="30" as="geometry"/>
                </mxCell>
                <mxCell id="9VQCFUlWGqOYBKX5Dbjd-3" value="PK" style="shape=partialRectangle;connectable=0;fillColor=none;top=0;left=0;bottom=0;right=0;fontStyle=1;overflow=hidden;whiteSpace=wrap;html=1;" parent="9VQCFUlWGqOYBKX5Dbjd-2" vertex="1">
                    <mxGeometry width="80" height="30" as="geometry">
                        <mxRectangle width="80" height="30" as="alternateBounds"/>
                    </mxGeometry>
                </mxCell>
                <mxCell id="9VQCFUlWGqOYBKX5Dbjd-4" value="BookID" style="shape=partialRectangle;connectable=0;fillColor=none;top=0;left=0;bottom=0;right=0;align=left;spacingLeft=6;fontStyle=5;overflow=hidden;whiteSpace=wrap;html=1;" parent="9VQCFUlWGqOYBKX5Dbjd-2" vertex="1">
                    <mxGeometry x="80" width="150" height="30" as="geometry">
                        <mxRectangle width="150" height="30" as="alternateBounds"/>
                    </mxGeometry>
                </mxCell>
                <mxCell id="9VQCFUlWGqOYBKX5Dbjd-5" value="" style="shape=tableRow;horizontal=0;startSize=0;swimlaneHead=0;swimlaneBody=0;fillColor=none;collapsible=0;dropTarget=0;points=[[0,0.5],[1,0.5]];portConstraint=eastwest;top=0;left=0;right=0;bottom=0;" parent="9VQCFUlWGqOYBKX5Dbjd-1" vertex="1">
                    <mxGeometry y="60" width="230" height="30" as="geometry"/>
                </mxCell>
                <mxCell id="9VQCFUlWGqOYBKX5Dbjd-6" value="varchar(255)" style="shape=partialRectangle;connectable=0;fillColor=none;top=0;left=0;bottom=0;right=0;editable=1;overflow=hidden;whiteSpace=wrap;html=1;" parent="9VQCFUlWGqOYBKX5Dbjd-5" vertex="1">
                    <mxGeometry width="80" height="30" as="geometry">
                        <mxRectangle width="80" height="30" as="alternateBounds"/>
                    </mxGeometry>
                </mxCell>
                <mxCell id="9VQCFUlWGqOYBKX5Dbjd-7" value="Title" style="shape=partialRectangle;connectable=0;fillColor=none;top=0;left=0;bottom=0;right=0;align=left;spacingLeft=6;overflow=hidden;whiteSpace=wrap;html=1;" parent="9VQCFUlWGqOYBKX5Dbjd-5" vertex="1">
                    <mxGeometry x="80" width="150" height="30" as="geometry">
                        <mxRectangle width="150" height="30" as="alternateBounds"/>
                    </mxGeometry>
                </mxCell>
                <mxCell id="9VQCFUlWGqOYBKX5Dbjd-8" value="" style="shape=tableRow;horizontal=0;startSize=0;swimlaneHead=0;swimlaneBody=0;fillColor=none;collapsible=0;dropTarget=0;points=[[0,0.5],[1,0.5]];portConstraint=eastwest;top=0;left=0;right=0;bottom=0;" parent="9VQCFUlWGqOYBKX5Dbjd-1" vertex="1">
                    <mxGeometry y="90" width="230" height="30" as="geometry"/>
                </mxCell>
                <mxCell id="9VQCFUlWGqOYBKX5Dbjd-9" value="varchar(255)" style="shape=partialRectangle;connectable=0;fillColor=none;top=0;left=0;bottom=0;right=0;editable=1;overflow=hidden;whiteSpace=wrap;html=1;" parent="9VQCFUlWGqOYBKX5Dbjd-8" vertex="1">
                    <mxGeometry width="80" height="30" as="geometry">
                        <mxRectangle width="80" height="30" as="alternateBounds"/>
                    </mxGeometry>
                </mxCell>
                <mxCell id="9VQCFUlWGqOYBKX5Dbjd-10" value="Author" style="shape=partialRectangle;connectable=0;fillColor=none;top=0;left=0;bottom=0;right=0;align=left;spacingLeft=6;overflow=hidden;whiteSpace=wrap;html=1;" parent="9VQCFUlWGqOYBKX5Dbjd-8" vertex="1">
                    <mxGeometry x="80" width="150" height="30" as="geometry">
                        <mxRectangle width="150" height="30" as="alternateBounds"/>
                    </mxGeometry>
                </mxCell>
                <mxCell id="9VQCFUlWGqOYBKX5Dbjd-11" value="" style="shape=tableRow;horizontal=0;startSize=0;swimlaneHead=0;swimlaneBody=0;fillColor=none;collapsible=0;dropTarget=0;points=[[0,0.5],[1,0.5]];portConstraint=eastwest;top=0;left=0;right=0;bottom=0;" parent="9VQCFUlWGqOYBKX5Dbjd-1" vertex="1">
                    <mxGeometry y="120" width="230" height="30" as="geometry"/>
                </mxCell>
                <mxCell id="9VQCFUlWGqOYBKX5Dbjd-12" value="varchar(255)" style="shape=partialRectangle;connectable=0;fillColor=none;top=0;left=0;bottom=0;right=0;editable=1;overflow=hidden;whiteSpace=wrap;html=1;" parent="9VQCFUlWGqOYBKX5Dbjd-11" vertex="1">
                    <mxGeometry width="80" height="30" as="geometry">
                        <mxRectangle width="80" height="30" as="alternateBounds"/>
                    </mxGeometry>
                </mxCell>
                <mxCell id="9VQCFUlWGqOYBKX5Dbjd-13" value="Genre" style="shape=partialRectangle;connectable=0;fillColor=none;top=0;left=0;bottom=0;right=0;align=left;spacingLeft=6;overflow=hidden;whiteSpace=wrap;html=1;" parent="9VQCFUlWGqOYBKX5Dbjd-11" vertex="1">
                    <mxGeometry x="80" width="150" height="30" as="geometry">
                        <mxRectangle width="150" height="30" as="alternateBounds"/>
                    </mxGeometry>
                </mxCell>
                <mxCell id="9VQCFUlWGqOYBKX5Dbjd-31" style="shape=tableRow;horizontal=0;startSize=0;swimlaneHead=0;swimlaneBody=0;fillColor=none;collapsible=0;dropTarget=0;points=[[0,0.5],[1,0.5]];portConstraint=eastwest;top=0;left=0;right=0;bottom=0;" parent="9VQCFUlWGqOYBKX5Dbjd-1" vertex="1">
                    <mxGeometry y="150" width="230" height="30" as="geometry"/>
                </mxCell>
                <mxCell id="9VQCFUlWGqOYBKX5Dbjd-32" style="shape=partialRectangle;connectable=0;fillColor=none;top=0;left=0;bottom=0;right=0;editable=1;overflow=hidden;whiteSpace=wrap;html=1;" parent="9VQCFUlWGqOYBKX5Dbjd-31" vertex="1">
                    <mxGeometry width="80" height="30" as="geometry">
                        <mxRectangle width="80" height="30" as="alternateBounds"/>
                    </mxGeometry>
                </mxCell>
                <mxCell id="9VQCFUlWGqOYBKX5Dbjd-33" value="" style="shape=partialRectangle;connectable=0;fillColor=none;top=0;left=0;bottom=0;right=0;align=left;spacingLeft=6;overflow=hidden;whiteSpace=wrap;html=1;" parent="9VQCFUlWGqOYBKX5Dbjd-31" vertex="1">
                    <mxGeometry x="80" width="150" height="30" as="geometry">
                        <mxRectangle width="150" height="30" as="alternateBounds"/>
                    </mxGeometry>
                </mxCell>
                <mxCell id="9VQCFUlWGqOYBKX5Dbjd-60" value="Publishers" style="shape=table;startSize=30;container=1;collapsible=1;childLayout=tableLayout;fixedRows=1;rowLines=0;fontStyle=1;align=center;resizeLast=1;html=1;" parent="1" vertex="1">
                    <mxGeometry x="670" y="80" width="200" height="150" as="geometry"/>
                </mxCell>
                <mxCell id="9VQCFUlWGqOYBKX5Dbjd-61" value="" style="shape=tableRow;horizontal=0;startSize=0;swimlaneHead=0;swimlaneBody=0;fillColor=none;collapsible=0;dropTarget=0;points=[[0,0.5],[1,0.5]];portConstraint=eastwest;top=0;left=0;right=0;bottom=1;" parent="9VQCFUlWGqOYBKX5Dbjd-60" vertex="1">
                    <mxGeometry y="30" width="200" height="30" as="geometry"/>
                </mxCell>
                <mxCell id="9VQCFUlWGqOYBKX5Dbjd-62" value="PK" style="shape=partialRectangle;connectable=0;fillColor=none;top=0;left=0;bottom=0;right=0;fontStyle=1;overflow=hidden;whiteSpace=wrap;html=1;" parent="9VQCFUlWGqOYBKX5Dbjd-61" vertex="1">
                    <mxGeometry width="70" height="30" as="geometry">
                        <mxRectangle width="70" height="30" as="alternateBounds"/>
                    </mxGeometry>
                </mxCell>
                <mxCell id="9VQCFUlWGqOYBKX5Dbjd-63" value="PublisherID" style="shape=partialRectangle;connectable=0;fillColor=none;top=0;left=0;bottom=0;right=0;align=left;spacingLeft=6;fontStyle=5;overflow=hidden;whiteSpace=wrap;html=1;" parent="9VQCFUlWGqOYBKX5Dbjd-61" vertex="1">
                    <mxGeometry x="70" width="130" height="30" as="geometry">
                        <mxRectangle width="130" height="30" as="alternateBounds"/>
                    </mxGeometry>
                </mxCell>
                <mxCell id="9VQCFUlWGqOYBKX5Dbjd-64" value="" style="shape=tableRow;horizontal=0;startSize=0;swimlaneHead=0;swimlaneBody=0;fillColor=none;collapsible=0;dropTarget=0;points=[[0,0.5],[1,0.5]];portConstraint=eastwest;top=0;left=0;right=0;bottom=0;" parent="9VQCFUlWGqOYBKX5Dbjd-60" vertex="1">
                    <mxGeometry y="60" width="200" height="30" as="geometry"/>
                </mxCell>
                <mxCell id="9VQCFUlWGqOYBKX5Dbjd-65" value="varchar(255)" style="shape=partialRectangle;connectable=0;fillColor=none;top=0;left=0;bottom=0;right=0;editable=1;overflow=hidden;whiteSpace=wrap;html=1;" parent="9VQCFUlWGqOYBKX5Dbjd-64" vertex="1">
                    <mxGeometry width="70" height="30" as="geometry">
                        <mxRectangle width="70" height="30" as="alternateBounds"/>
                    </mxGeometry>
                </mxCell>
                <mxCell id="9VQCFUlWGqOYBKX5Dbjd-66" value="Name" style="shape=partialRectangle;connectable=0;fillColor=none;top=0;left=0;bottom=0;right=0;align=left;spacingLeft=6;overflow=hidden;whiteSpace=wrap;html=1;" parent="9VQCFUlWGqOYBKX5Dbjd-64" vertex="1">
                    <mxGeometry x="70" width="130" height="30" as="geometry">
                        <mxRectangle width="130" height="30" as="alternateBounds"/>
                    </mxGeometry>
                </mxCell>
                <mxCell id="9VQCFUlWGqOYBKX5Dbjd-67" value="" style="shape=tableRow;horizontal=0;startSize=0;swimlaneHead=0;swimlaneBody=0;fillColor=none;collapsible=0;dropTarget=0;points=[[0,0.5],[1,0.5]];portConstraint=eastwest;top=0;left=0;right=0;bottom=0;" parent="9VQCFUlWGqOYBKX5Dbjd-60" vertex="1">
                    <mxGeometry y="90" width="200" height="30" as="geometry"/>
                </mxCell>
                <mxCell id="9VQCFUlWGqOYBKX5Dbjd-68" value="" style="shape=partialRectangle;connectable=0;fillColor=none;top=0;left=0;bottom=0;right=0;editable=1;overflow=hidden;whiteSpace=wrap;html=1;" parent="9VQCFUlWGqOYBKX5Dbjd-67" vertex="1">
                    <mxGeometry width="70" height="30" as="geometry">
                        <mxRectangle width="70" height="30" as="alternateBounds"/>
                    </mxGeometry>
                </mxCell>
                <mxCell id="9VQCFUlWGqOYBKX5Dbjd-69" value="" style="shape=partialRectangle;connectable=0;fillColor=none;top=0;left=0;bottom=0;right=0;align=left;spacingLeft=6;overflow=hidden;whiteSpace=wrap;html=1;" parent="9VQCFUlWGqOYBKX5Dbjd-67" vertex="1">
                    <mxGeometry x="70" width="130" height="30" as="geometry">
                        <mxRectangle width="130" height="30" as="alternateBounds"/>
                    </mxGeometry>
                </mxCell>
                <mxCell id="9VQCFUlWGqOYBKX5Dbjd-70" value="" style="shape=tableRow;horizontal=0;startSize=0;swimlaneHead=0;swimlaneBody=0;fillColor=none;collapsible=0;dropTarget=0;points=[[0,0.5],[1,0.5]];portConstraint=eastwest;top=0;left=0;right=0;bottom=0;" parent="9VQCFUlWGqOYBKX5Dbjd-60" vertex="1">
                    <mxGeometry y="120" width="200" height="30" as="geometry"/>
                </mxCell>
                <mxCell id="9VQCFUlWGqOYBKX5Dbjd-71" value="" style="shape=partialRectangle;connectable=0;fillColor=none;top=0;left=0;bottom=0;right=0;editable=1;overflow=hidden;whiteSpace=wrap;html=1;" parent="9VQCFUlWGqOYBKX5Dbjd-70" vertex="1">
                    <mxGeometry width="70" height="30" as="geometry">
                        <mxRectangle width="70" height="30" as="alternateBounds"/>
                    </mxGeometry>
                </mxCell>
                <mxCell id="9VQCFUlWGqOYBKX5Dbjd-72" value="" style="shape=partialRectangle;connectable=0;fillColor=none;top=0;left=0;bottom=0;right=0;align=left;spacingLeft=6;overflow=hidden;whiteSpace=wrap;html=1;" parent="9VQCFUlWGqOYBKX5Dbjd-70" vertex="1">
                    <mxGeometry x="70" width="130" height="30" as="geometry">
                        <mxRectangle width="130" height="30" as="alternateBounds"/>
                    </mxGeometry>
                </mxCell>
                <mxCell id="jY0VuxcyaACjDUc0Nih2-8" value="Editions" style="shape=table;startSize=30;container=1;collapsible=0;childLayout=tableLayout;" parent="1" vertex="1">
                    <mxGeometry x="320" y="350" width="260" height="262" as="geometry"/>
                </mxCell>
                <mxCell id="jY0VuxcyaACjDUc0Nih2-9" value="" style="shape=tableRow;horizontal=0;startSize=0;swimlaneHead=0;swimlaneBody=0;strokeColor=inherit;top=0;left=0;bottom=0;right=0;collapsible=0;dropTarget=0;fillColor=none;points=[[0,0.5],[1,0.5]];portConstraint=eastwest;" parent="jY0VuxcyaACjDUc0Nih2-8" vertex="1">
                    <mxGeometry y="30" width="260" height="38" as="geometry"/>
                </mxCell>
                <mxCell id="jY0VuxcyaACjDUc0Nih2-10" value="PK" style="shape=partialRectangle;html=1;whiteSpace=wrap;connectable=0;strokeColor=inherit;overflow=hidden;fillColor=none;top=0;left=0;bottom=0;right=0;pointerEvents=1;" parent="jY0VuxcyaACjDUc0Nih2-9" vertex="1">
                    <mxGeometry width="80" height="38" as="geometry">
                        <mxRectangle width="80" height="38" as="alternateBounds"/>
                    </mxGeometry>
                </mxCell>
                <mxCell id="jY0VuxcyaACjDUc0Nih2-11" value="&amp;nbsp;EditionID" style="shape=partialRectangle;html=1;whiteSpace=wrap;connectable=0;strokeColor=inherit;overflow=hidden;fillColor=none;top=0;left=0;bottom=0;right=0;pointerEvents=1;align=left;" parent="jY0VuxcyaACjDUc0Nih2-9" vertex="1">
                    <mxGeometry x="80" width="180" height="38" as="geometry">
                        <mxRectangle width="180" height="38" as="alternateBounds"/>
                    </mxGeometry>
                </mxCell>
                <mxCell id="jY0VuxcyaACjDUc0Nih2-12" value="" style="shape=tableRow;horizontal=0;startSize=0;swimlaneHead=0;swimlaneBody=0;strokeColor=inherit;top=0;left=0;bottom=0;right=0;collapsible=0;dropTarget=0;fillColor=none;points=[[0,0.5],[1,0.5]];portConstraint=eastwest;" parent="jY0VuxcyaACjDUc0Nih2-8" vertex="1">
                    <mxGeometry y="68" width="260" height="40" as="geometry"/>
                </mxCell>
                <mxCell id="jY0VuxcyaACjDUc0Nih2-13" value="FK" style="shape=partialRectangle;html=1;whiteSpace=wrap;connectable=0;strokeColor=inherit;overflow=hidden;fillColor=none;top=0;left=0;bottom=0;right=0;pointerEvents=1;" parent="jY0VuxcyaACjDUc0Nih2-12" vertex="1">
                    <mxGeometry width="80" height="40" as="geometry">
                        <mxRectangle width="80" height="40" as="alternateBounds"/>
                    </mxGeometry>
                </mxCell>
                <mxCell id="jY0VuxcyaACjDUc0Nih2-14" value="&amp;nbsp;BookID" style="shape=partialRectangle;html=1;whiteSpace=wrap;connectable=0;strokeColor=inherit;overflow=hidden;fillColor=none;top=0;left=0;bottom=0;right=0;pointerEvents=1;align=left;" parent="jY0VuxcyaACjDUc0Nih2-12" vertex="1">
                    <mxGeometry x="80" width="180" height="40" as="geometry">
                        <mxRectangle width="180" height="40" as="alternateBounds"/>
                    </mxGeometry>
                </mxCell>
                <mxCell id="jY0VuxcyaACjDUc0Nih2-15" value="" style="shape=tableRow;horizontal=0;startSize=0;swimlaneHead=0;swimlaneBody=0;strokeColor=inherit;top=0;left=0;bottom=0;right=0;collapsible=0;dropTarget=0;fillColor=none;points=[[0,0.5],[1,0.5]];portConstraint=eastwest;" parent="jY0VuxcyaACjDUc0Nih2-8" vertex="1">
                    <mxGeometry y="108" width="260" height="38" as="geometry"/>
                </mxCell>
                <mxCell id="jY0VuxcyaACjDUc0Nih2-16" value="FK" style="shape=partialRectangle;html=1;whiteSpace=wrap;connectable=0;strokeColor=inherit;overflow=hidden;fillColor=none;top=0;left=0;bottom=0;right=0;pointerEvents=1;" parent="jY0VuxcyaACjDUc0Nih2-15" vertex="1">
                    <mxGeometry width="80" height="38" as="geometry">
                        <mxRectangle width="80" height="38" as="alternateBounds"/>
                    </mxGeometry>
                </mxCell>
                <mxCell id="jY0VuxcyaACjDUc0Nih2-17" value="&amp;nbsp;PublisherID" style="shape=partialRectangle;html=1;whiteSpace=wrap;connectable=0;strokeColor=inherit;overflow=hidden;fillColor=none;top=0;left=0;bottom=0;right=0;pointerEvents=1;align=left;" parent="jY0VuxcyaACjDUc0Nih2-15" vertex="1">
                    <mxGeometry x="80" width="180" height="38" as="geometry">
                        <mxRectangle width="180" height="38" as="alternateBounds"/>
                    </mxGeometry>
                </mxCell>
                <mxCell id="jY0VuxcyaACjDUc0Nih2-18" value="" style="shape=tableRow;horizontal=0;startSize=0;swimlaneHead=0;swimlaneBody=0;strokeColor=inherit;top=0;left=0;bottom=0;right=0;collapsible=0;dropTarget=0;fillColor=none;points=[[0,0.5],[1,0.5]];portConstraint=eastwest;" parent="jY0VuxcyaACjDUc0Nih2-8" vertex="1">
                    <mxGeometry y="146" width="260" height="38" as="geometry"/>
                </mxCell>
                <mxCell id="jY0VuxcyaACjDUc0Nih2-19" value="DECIMAL(3,2)" style="shape=partialRectangle;html=1;whiteSpace=wrap;connectable=0;strokeColor=inherit;overflow=hidden;fillColor=none;top=0;left=0;bottom=0;right=0;pointerEvents=1;" parent="jY0VuxcyaACjDUc0Nih2-18" vertex="1">
                    <mxGeometry width="80" height="38" as="geometry">
                        <mxRectangle width="80" height="38" as="alternateBounds"/>
                    </mxGeometry>
                </mxCell>
                <mxCell id="jY0VuxcyaACjDUc0Nih2-20" value="&amp;nbsp;average_rating" style="shape=partialRectangle;html=1;whiteSpace=wrap;connectable=0;strokeColor=inherit;overflow=hidden;fillColor=none;top=0;left=0;bottom=0;right=0;pointerEvents=1;align=left;" parent="jY0VuxcyaACjDUc0Nih2-18" vertex="1">
                    <mxGeometry x="80" width="180" height="38" as="geometry">
                        <mxRectangle width="180" height="38" as="alternateBounds"/>
                    </mxGeometry>
                </mxCell>
                <mxCell id="jY0VuxcyaACjDUc0Nih2-21" value="" style="shape=tableRow;horizontal=0;startSize=0;swimlaneHead=0;swimlaneBody=0;strokeColor=inherit;top=0;left=0;bottom=0;right=0;collapsible=0;dropTarget=0;fillColor=none;points=[[0,0.5],[1,0.5]];portConstraint=eastwest;" parent="jY0VuxcyaACjDUc0Nih2-8" vertex="1">
                    <mxGeometry y="184" width="260" height="38" as="geometry"/>
                </mxCell>
                <mxCell id="jY0VuxcyaACjDUc0Nih2-22" value="INT" style="shape=partialRectangle;html=1;whiteSpace=wrap;connectable=0;strokeColor=inherit;overflow=hidden;fillColor=none;top=0;left=0;bottom=0;right=0;pointerEvents=1;" parent="jY0VuxcyaACjDUc0Nih2-21" vertex="1">
                    <mxGeometry width="80" height="38" as="geometry">
                        <mxRectangle width="80" height="38" as="alternateBounds"/>
                    </mxGeometry>
                </mxCell>
                <mxCell id="jY0VuxcyaACjDUc0Nih2-23" value="&amp;nbsp;ratings_count" style="shape=partialRectangle;html=1;whiteSpace=wrap;connectable=0;strokeColor=inherit;overflow=hidden;fillColor=none;top=0;left=0;bottom=0;right=0;pointerEvents=1;align=left;" parent="jY0VuxcyaACjDUc0Nih2-21" vertex="1">
                    <mxGeometry x="80" width="180" height="38" as="geometry">
                        <mxRectangle width="180" height="38" as="alternateBounds"/>
                    </mxGeometry>
                </mxCell>
                <mxCell id="jY0VuxcyaACjDUc0Nih2-24" value="" style="shape=tableRow;horizontal=0;startSize=0;swimlaneHead=0;swimlaneBody=0;strokeColor=inherit;top=0;left=0;bottom=0;right=0;collapsible=0;dropTarget=0;fillColor=none;points=[[0,0.5],[1,0.5]];portConstraint=eastwest;" parent="jY0VuxcyaACjDUc0Nih2-8" vertex="1">
                    <mxGeometry y="222" width="260" height="40" as="geometry"/>
                </mxCell>
                <mxCell id="jY0VuxcyaACjDUc0Nih2-25" value="YEAR" style="shape=partialRectangle;html=1;whiteSpace=wrap;connectable=0;strokeColor=inherit;overflow=hidden;fillColor=none;top=0;left=0;bottom=0;right=0;pointerEvents=1;" parent="jY0VuxcyaACjDUc0Nih2-24" vertex="1">
                    <mxGeometry width="80" height="40" as="geometry">
                        <mxRectangle width="80" height="40" as="alternateBounds"/>
                    </mxGeometry>
                </mxCell>
                <mxCell id="jY0VuxcyaACjDUc0Nih2-26" value="&amp;nbsp;published_year" style="shape=partialRectangle;html=1;whiteSpace=wrap;connectable=0;strokeColor=inherit;overflow=hidden;fillColor=none;top=0;left=0;bottom=0;right=0;pointerEvents=1;align=left;" parent="jY0VuxcyaACjDUc0Nih2-24" vertex="1">
                    <mxGeometry x="80" width="180" height="40" as="geometry">
                        <mxRectangle width="180" height="40" as="alternateBounds"/>
                    </mxGeometry>
                </mxCell>
                <mxCell id="jY0VuxcyaACjDUc0Nih2-30" value="" style="edgeStyle=entityRelationEdgeStyle;fontSize=12;html=1;endArrow=ERoneToMany;startArrow=ERmandOne;rounded=0;exitX=1;exitY=0.5;exitDx=0;exitDy=0;entryX=0;entryY=0.5;entryDx=0;entryDy=0;" parent="1" source="9VQCFUlWGqOYBKX5Dbjd-8" target="jY0VuxcyaACjDUc0Nih2-15" edge="1">
                    <mxGeometry width="100" height="100" relative="1" as="geometry">
                        <mxPoint x="130" y="300" as="sourcePoint"/>
                        <mxPoint x="470" y="270" as="targetPoint"/>
                        <Array as="points">
                            <mxPoint x="460" y="310"/>
                        </Array>
                    </mxGeometry>
                </mxCell>
                <mxCell id="jY0VuxcyaACjDUc0Nih2-31" value="" style="edgeStyle=entityRelationEdgeStyle;fontSize=12;html=1;endArrow=ERoneToMany;startArrow=ERmandOne;rounded=0;exitX=0;exitY=0.5;exitDx=0;exitDy=0;" parent="1" source="9VQCFUlWGqOYBKX5Dbjd-67" target="jY0VuxcyaACjDUc0Nih2-8" edge="1">
                    <mxGeometry width="100" height="100" relative="1" as="geometry">
                        <mxPoint x="746.9" y="200" as="sourcePoint"/>
                        <mxPoint x="579.9999999999999" y="506.9860000000001" as="targetPoint"/>
                    </mxGeometry>
                </mxCell>
            </root>
        </mxGraphModel>
    </diagram>
</mxfile>